<svg xmlns="http://www.w3.org/2000/svg" xmlns:xlink="http://www.w3.org/1999/xlink" viewBox="0 0 292.66 9.64"><defs><style>.cls-1{fill:url(#Dégradé_sans_nom_7);}</style><linearGradient id="Dégradé_sans_nom_7" y1="4.82" x2="292.66" y2="4.82" gradientUnits="userSpaceOnUse"><stop offset="0" stop-color="#d1ff9a"/><stop offset="0.13" stop-color="#b1e785"/><stop offset="0.31" stop-color="#8aca6b"/><stop offset="0.5" stop-color="#6bb356"/><stop offset="0.68" stop-color="#55a248"/><stop offset="0.85" stop-color="#48983f"/><stop offset="1" stop-color="#43953c"/></linearGradient></defs><g id="Calque_2" data-name="Calque 2"><g id="Calque_1-2" data-name="Calque 1"><path class="cls-1" d="M292.55,2.37c-.41-3.16-2.94-2.32-5-2.12l-6.69.63L272.53.82l-.74,0L268.86.55,253.79.62l-4.52.19a.77.77,0,0,0-.71,0L247,.85,220.77.73l-2.23,0L205.84.65h-.06L192.3.73,169,2.28l-.74,0h-1.51L123.3,2.08,122.4,2l-1.15,0L95.53.64h-15l-18,.83L55,1.33h0a3.79,3.79,0,0,1-.42-.18A3.27,3.27,0,0,0,53.36.74c-8.19,0-16.39,0-24.58,0H22.07L.13,1.9,0,3,2.6,4.34,0,5.78l.17.74H34l3,.11c.7.21,1.39.52,2.09.77a6.11,6.11,0,0,0,2.09.46c19.61.08,39.22.06,58.82.07l4.5,0,.77,0,13,.79,16.26.69,20.23.16,15.75-.16h.08l22.67-1.24h0l.91-.05.3,0h0l1.58-.06L205,8l5.3,0,20.22.81,3.66.42h0l2.37,0H238l2.37,0,.31,0L242.55,9c2.13,0,4.26-.12,6.39-.14h2.13c9.17.12,18.33.29,27.49.45l3.85-.23,5.11-.28.76,0a2.52,2.52,0,0,0,.73-.06C292.44,7.92,292.92,5.19,292.55,2.37Z"/></g></g></svg>