<svg xmlns="http://www.w3.org/2000/svg" xmlns:xlink="http://www.w3.org/1999/xlink" viewBox="0 0 292.66 9.64"><defs><style>.cls-1{fill:url(#Dégradé_sans_nom_7);}</style><linearGradient id="Dégradé_sans_nom_7" y1="4.82" x2="292.66" y2="4.82" gradientTransform="matrix(-1, 0, 0, 1, 292.66, 0)" gradientUnits="userSpaceOnUse"><stop offset="0" stop-color="#d1ff9a"/><stop offset="0.13" stop-color="#b1e785"/><stop offset="0.31" stop-color="#8aca6b"/><stop offset="0.5" stop-color="#6bb356"/><stop offset="0.68" stop-color="#55a248"/><stop offset="0.85" stop-color="#48983f"/><stop offset="1" stop-color="#43953c"/></linearGradient></defs><g id="Calque_2" data-name="Calque 2"><g id="Calque_1-2" data-name="Calque 1"><path class="cls-1" d="M.1,2.37C.52-.79,3.05.05,5.11.25l6.7.63L20.12.82l.75,0L23.79.55,38.87.62l4.52.19a.77.77,0,0,1,.71,0l1.58,0L71.88.73l2.23,0L86.81.65h.06l13.49.08,23.26,1.55.75,0h1.51l43.47-.22.91-.05,1.15,0L197.12.64h15l18,.83,7.49-.15h0a3.79,3.79,0,0,0,.42-.18A3.27,3.27,0,0,1,239.3.74c8.19,0,16.38,0,24.57,0h6.71L292.53,1.9l.1,1.07-2.58,1.37,2.61,1.44-.18.74H258.62l-3,.11c-.7.21-1.4.52-2.1.77a6,6,0,0,1-2.09.46c-19.6.08-39.21.06-58.82.07l-4.5,0-.76,0-13,.79-16.25.69-20.23.16-15.76-.16h-.07L99.38,8.23h0l-.92-.05-.3,0h0L96.61,8.1l-9-.06-5.3,0-20.21.81-3.66.42h0l-2.37,0H54.67l-2.36,0-.32,0L50.11,9c-2.13,0-4.27-.12-6.4-.14H41.58c-9.16.12-18.32.29-27.48.45l-3.86-.23-5.1-.28-.76,0a2.62,2.62,0,0,1-.74-.06C.22,7.92-.26,5.19.1,2.37Z"/></g></g></svg>