<svg xmlns="http://www.w3.org/2000/svg" viewBox="0 0 157.87 3.72"><defs><style>.cls-1{fill:#0228dd;}</style></defs><g id="Calque_2" data-name="Calque 2"><g id="Calque_1-2" data-name="Calque 1"><path class="cls-1" d="M157.65,3.72c.08-.44.15-.88.22-1.32a22.06,22.06,0,0,0-4.31-.9c-46,0-92,0-138-.1C10.25,1.38,4.92.46,0,0,1.58,2.19,4.41,3.4,7.81,3.52c2.25.09,4.5.19,6.74.19h143.1Z"/><path class="cls-1" d="M157.65,3.72H14.55c-2.24,0-4.49-.1-6.74-.19C4.41,3.4,1.58,2.19,0,0,4.92.46,10.25,1.38,15.59,1.4c46,.11,92,.06,138,.1a22.06,22.06,0,0,1,4.31.9C157.8,2.84,157.73,3.28,157.65,3.72Z"/></g></g></svg>